<svg width="174" height="28" viewBox="0 0 174 28" xmlns="http://www.w3.org/2000/svg" xmlns:xlink="http://www.w3.org/1999/xlink"><title>Group 2 Copy</title><defs><path id="a" d="M0 0.0150666667L23.5905326 0.0150666667 23.5905326 27.5670667 0 27.5670667z"/><path id="c" d="M0 0L27.7486058 0 27.7486058 28 0 28z"/></defs><g fill="none" fill-rule="evenodd"><mask id="b" fill="#fff"><use xlink:href="#a"/></mask><path d="M11.196 13.36L22.662.527c.196-.197.04-.513-.233-.513H16.03c-.429 0-.858.197-1.169.552L6.28 10.486V.723A.704.704 0 0 0 5.58.015H.703A.704.704 0 0 0 0 .723V26.86c0 .392.313.708.703.708h4.876a.704.704 0 0 0 .701-.708V16.232l9.44 10.824c.31.314.741.511 1.17.511h6.396c.274 0 .391-.316.234-.51L11.196 13.358z" fill="#FFF" mask="url(#b)"/><path d="M36.224 17.441l2.105-5.14 2.068 5.14h-4.173zM39.244.632A1.035 1.035 0 0 0 38.29 0c-.398 0-.795.237-.954.632L25.137 27.368c-.12.277.12.632.436.632h5.682c.44 0 .835-.277.994-.673l1.988-4.943h8.185l1.988 4.943c.159.396.555.673.993.673h5.682c.318 0 .556-.355.398-.632L39.245.632zm30.1 21.409h-9.001V.72c0-.4-.306-.721-.69-.721h-4.788c-.382 0-.69.321-.69.72v26.56c0 .4.308.72.69.72h14.478c.383 0 .69-.32.69-.72v-4.52c0-.4-.307-.72-.69-.72M94.451 0H77.327c-.381 0-.688.321-.688.72v26.56c0 .399.307.72.688.72H94.45c.383 0 .687-.321.687-.72v-4.52c0-.4-.304-.72-.687-.72H82.754v-4.879h8.983c.383 0 .69-.32.69-.722V11.92c0-.4-.307-.72-.69-.72h-8.983V5.96h11.697c.383 0 .687-.32.687-.719V.72c0-.399-.304-.72-.687-.72m13.158 0h-5.121a.73.73 0 0 0-.743.72v26.56c0 .399.331.72.743.72h5.12a.73.73 0 0 0 .744-.72V.72a.73.73 0 0 0-.743-.72m18.677 22.04h-3.692V5.92h3.692c6.433 0 7.346 5.96 7.346 8.042 0 2.079-.913 8.079-7.346 8.079m0-22.041h-9.292a.716.716 0 0 0-.714.72v26.56c0 .4.319.72.714.72h9.292c10.564 0 13.778-8.04 13.778-14.038C140.064 8.121 136.85 0 126.286 0" fill="#FFF"/><g transform="translate(145.35)"><mask id="d" fill="#fff"><use xlink:href="#c"/></mask><path d="M13.893 22.192c-6.469 0-7.387-6.196-7.387-8.21 0-2.013.918-8.134 7.387-8.134 6.428 0 7.347 6.12 7.347 8.134 0 2.014-.919 8.21-7.347 8.21m0-22.192C3.273 0 0 8.327 0 13.982 0 19.79 3.273 28 13.893 28c10.582 0 13.856-8.21 13.856-14.018C27.749 8.327 24.475 0 13.893 0" fill="#FFF" mask="url(#d)"/></g></g></svg>