<?xml version="1.0" encoding="UTF-8"?>
<svg width="175px" height="175px" viewBox="0 0 175 175" version="1.1" xmlns="http://www.w3.org/2000/svg" xmlns:xlink="http://www.w3.org/1999/xlink">
    <!-- Generator: Sketch 52.6 (67491) - http://www.bohemiancoding.com/sketch -->
    <title>iPhone 8</title>
    <desc>Created with Sketch.</desc>
    <g id="iPhone-8" stroke="none" stroke-width="1" fill="none" fill-rule="evenodd">
        <g id="Group-2" transform="translate(43.000000, 20.000000)">
            <g id="Group">
                <polygon id="Rectangle" fill="#F79181" transform="translate(40.572280, 33.937322) rotate(-60.000000) translate(-40.572280, -33.937322) " points="10.3078102 30.9587489 74.0951645 30.921708 70.6925256 36.8672092 7.04939554 36.9529369"></polygon>
                <polygon id="Rectangle" fill="#CB837A" transform="translate(46.145574, 24.232825) rotate(-60.000000) translate(-46.145574, -24.232825) " points="39.4613564 21.2685161 56.2986964 21.2489978 52.947316 27.1798546 35.9924524 27.2166523"></polygon>
                <polygon id="Rectangle" fill="#503863" points="15.7575758 52.4242424 26.4443877 52.4242424 29.8827385 58.4848485 15.7575758 58.4848485"></polygon>
                <polygon id="Rectangle" fill="#573F6A" transform="translate(52.660954, 29.373989) rotate(60.000000) translate(-52.660954, -29.373989) " points="24.3861981 26.27797 80.9898597 26.3553086 84.4795912 32.4700072 20.8423163 32.4161532"></polygon>
                <polygon id="Rectangle" fill="#573F6A" transform="translate(26.004884, 35.617814) rotate(-60.000000) translate(-26.004884, -35.617814) " points="-9.08722905 32.5544616 61.0969966 32.4362352 57.8633064 38.7993937 -5.58817602 38.6149993"></polygon>
                <polygon id="Rectangle" fill="#EF9688" transform="translate(19.966219, 33.937322) rotate(-60.000000) translate(-19.966219, -33.937322) " points="-10.2982504 30.9587489 53.4891039 30.921708 50.0424713 36.7864231 -13.5566651 36.9529369"></polygon>
                <polygon id="Rectangle" fill="#EF9688" transform="translate(48.258519, 33.919243) scale(-1, 1) rotate(-60.000000) translate(-48.258519, -33.919243) " points="18.1667951 30.9158545 81.7856173 30.8747685 78.0098356 36.7187339 14.7314207 36.9637177"></polygon>
                <polygon id="Rectangle" fill="#573F6A" transform="translate(52.660954, 29.373989) rotate(60.000000) translate(-52.660954, -29.373989) " points="24.3861981 26.27797 80.9898597 26.3553086 84.4795912 32.4700072 20.8423163 32.4161532"></polygon>
                <polygon id="Rectangle" fill="#573F6A" transform="translate(26.004884, 35.617814) rotate(-60.000000) translate(-26.004884, -35.617814) " points="-9.08722905 32.5544616 61.0969966 32.4362352 57.8633064 38.7993937 -5.58817602 38.6149993"></polygon>
                <polygon id="Rectangle" fill="#F79181" transform="translate(19.966219, 33.937322) rotate(-60.000000) translate(-19.966219, -33.937322) " points="-10.2982504 30.9587489 53.4891039 30.921708 50.0864649 36.8672092 -13.5566651 36.9529369"></polygon>
                <polygon id="Rectangle" fill="#B6576E" transform="translate(46.610944, 35.617814) rotate(-60.000000) translate(-46.610944, -35.617814) " points="11.5188316 32.5544616 81.7030572 32.4362352 78.469367 38.7993937 15.0178846 38.6149993"></polygon>
                <polygon id="Rectangle" fill="#503863" transform="translate(74.145655, 30.895839) rotate(60.000000) translate(-74.145655, -30.895839) " points="44.113618 27.7998202 107.721574 27.9186611 104.207011 33.9918574 40.5697363 33.9380034"></polygon>
                <polygon id="Rectangle" fill="#F79181" transform="translate(68.864580, 33.919243) scale(-1, 1) rotate(-60.000000) translate(-68.864580, -33.919243) " points="38.7728557 30.9158545 102.391678 30.8747685 98.6158962 36.7187339 35.3374813 36.9637177"></polygon>
                <rect id="Rectangle" fill="#503863" x="65.4545455" y="52.4242424" width="22.4242424" height="6.06060606"></rect>
                <polygon id="Rectangle" fill="#F79181" transform="translate(48.258519, 33.919243) scale(-1, 1) rotate(-60.000000) translate(-48.258519, -33.919243) " points="18.1667951 30.9158545 81.7856173 30.8747685 78.0098356 36.7187339 14.7314207 36.9637177"></polygon>
                <polygon id="Rectangle" fill="#B6576E" transform="translate(26.004884, 35.617814) rotate(-60.000000) translate(-26.004884, -35.617814) " points="-9.08722905 32.5544616 61.0969966 32.4362352 57.8633064 38.7993937 -5.58817602 38.6149993"></polygon>
                <polygon id="Rectangle" fill="#503863" transform="translate(52.660954, 29.373989) rotate(60.000000) translate(-52.660954, -29.373989) " points="24.3861981 26.27797 80.9898597 26.3553086 84.4795912 32.4700072 20.8423163 32.4161532"></polygon>
                <polygon id="Rectangle" fill="#F79181" transform="translate(19.966219, 33.937322) rotate(-60.000000) translate(-19.966219, -33.937322) " points="-10.2982504 30.9587489 53.4891039 30.921708 50.0864649 36.8672092 -13.5566651 36.9529369"></polygon>
                <polygon id="Rectangle" fill="#F79181" transform="translate(48.258519, 33.919243) scale(-1, 1) rotate(-60.000000) translate(-48.258519, -33.919243) " points="18.1667951 30.9158545 81.7856173 30.8747685 78.0098356 36.7187339 14.7314207 36.9637177"></polygon>
                <polygon id="Rectangle" fill="#B6576E" points="65.875947 58.4848485 93.6148451 58.4848485 90.320601 64.4767992 62.3801861 64.4767992"></polygon>
                <polygon id="Rectangle" fill="#B6576E" points="12.1212121 58.4848485 32.1212121 58.4848485 32.1212121 64.4767992 12.1212121 64.4767992"></polygon>
            </g>
            <g id="Group" transform="translate(46.969697, 106.060606) scale(1, -1) translate(-46.969697, -106.060606) translate(0.000000, 72.121212)">
                <polygon id="Rectangle" fill="#F79181" transform="translate(40.572280, 33.937322) rotate(-60.000000) translate(-40.572280, -33.937322) " points="10.3078102 30.9587489 74.0951645 30.921708 70.6925256 36.8672092 7.04939554 36.9529369"></polygon>
                <polygon id="Rectangle" fill="#CB837A" transform="translate(46.145574, 24.232825) rotate(-60.000000) translate(-46.145574, -24.232825) " points="39.4613564 21.2685161 56.2986964 21.2489978 52.947316 27.1798546 35.9924524 27.2166523"></polygon>
                <polygon id="Rectangle" fill="#503863" points="15.7575758 52.4242424 26.4443877 52.4242424 29.8827385 58.4848485 15.7575758 58.4848485"></polygon>
                <polygon id="Rectangle" fill="#573F6A" transform="translate(52.660954, 29.373989) rotate(60.000000) translate(-52.660954, -29.373989) " points="24.3861981 26.27797 80.9898597 26.3553086 84.4795912 32.4700072 20.8423163 32.4161532"></polygon>
                <polygon id="Rectangle" fill="#573F6A" transform="translate(26.004884, 35.617814) rotate(-60.000000) translate(-26.004884, -35.617814) " points="-9.08722905 32.5544616 61.0969966 32.4362352 57.8633064 38.7993937 -5.58817602 38.6149993"></polygon>
                <polygon id="Rectangle" fill="#EF9688" transform="translate(19.966219, 33.937322) rotate(-60.000000) translate(-19.966219, -33.937322) " points="-10.2982504 30.9587489 53.4891039 30.921708 50.0424713 36.7864231 -13.5566651 36.9529369"></polygon>
                <polygon id="Rectangle" fill="#EF9688" transform="translate(48.258519, 33.919243) scale(-1, 1) rotate(-60.000000) translate(-48.258519, -33.919243) " points="18.1667951 30.9158545 81.7856173 30.8747685 78.0098356 36.7187339 14.7314207 36.9637177"></polygon>
                <polygon id="Rectangle" fill="#573F6A" transform="translate(52.660954, 29.373989) rotate(60.000000) translate(-52.660954, -29.373989) " points="24.3861981 26.27797 80.9898597 26.3553086 84.4795912 32.4700072 20.8423163 32.4161532"></polygon>
                <polygon id="Rectangle" fill="#573F6A" transform="translate(26.004884, 35.617814) rotate(-60.000000) translate(-26.004884, -35.617814) " points="-9.08722905 32.5544616 61.0969966 32.4362352 57.8633064 38.7993937 -5.58817602 38.6149993"></polygon>
                <polygon id="Rectangle" fill="#F79181" transform="translate(19.966219, 33.937322) rotate(-60.000000) translate(-19.966219, -33.937322) " points="-10.2982504 30.9587489 53.4891039 30.921708 50.0864649 36.8672092 -13.5566651 36.9529369"></polygon>
                <polygon id="Rectangle" fill="#B6576E" transform="translate(46.610944, 35.617814) rotate(-60.000000) translate(-46.610944, -35.617814) " points="11.5188316 32.5544616 81.7030572 32.4362352 78.469367 38.7993937 15.0178846 38.6149993"></polygon>
                <polygon id="Rectangle" fill="#503863" transform="translate(74.145655, 30.895839) rotate(60.000000) translate(-74.145655, -30.895839) " points="44.113618 27.7998202 107.721574 27.9186611 104.207011 33.9918574 40.5697363 33.9380034"></polygon>
                <polygon id="Rectangle" fill="#F79181" transform="translate(68.864580, 33.919243) scale(-1, 1) rotate(-60.000000) translate(-68.864580, -33.919243) " points="38.7728557 30.9158545 102.391678 30.8747685 98.6158962 36.7187339 35.3374813 36.9637177"></polygon>
                <rect id="Rectangle" fill="#503863" x="65.4545455" y="52.4242424" width="22.4242424" height="6.06060606"></rect>
                <polygon id="Rectangle" fill="#F79181" transform="translate(48.258519, 33.919243) scale(-1, 1) rotate(-60.000000) translate(-48.258519, -33.919243) " points="18.1667951 30.9158545 81.7856173 30.8747685 78.0098356 36.7187339 14.7314207 36.9637177"></polygon>
                <polygon id="Rectangle" fill="#B6576E" transform="translate(26.004884, 35.617814) rotate(-60.000000) translate(-26.004884, -35.617814) " points="-9.08722905 32.5544616 61.0969966 32.4362352 57.8633064 38.7993937 -5.58817602 38.6149993"></polygon>
                <polygon id="Rectangle" fill="#503863" transform="translate(52.660954, 29.373989) rotate(60.000000) translate(-52.660954, -29.373989) " points="24.3861981 26.27797 80.9898597 26.3553086 84.4795912 32.4700072 20.8423163 32.4161532"></polygon>
                <polygon id="Rectangle" fill="#F79181" transform="translate(19.966219, 33.937322) rotate(-60.000000) translate(-19.966219, -33.937322) " points="-10.2982504 30.9587489 53.4891039 30.921708 50.0864649 36.8672092 -13.5566651 36.9529369"></polygon>
                <polygon id="Rectangle" fill="#F79181" transform="translate(48.258519, 33.919243) scale(-1, 1) rotate(-60.000000) translate(-48.258519, -33.919243) " points="18.1667951 30.9158545 81.7856173 30.8747685 78.0098356 36.7187339 14.7314207 36.9637177"></polygon>
                <polygon id="Rectangle" fill="#B6576E" points="65.875947 58.4848485 93.6148451 58.4848485 90.320601 64.4767992 62.3801861 64.4767992"></polygon>
                <polygon id="Rectangle" fill="#B6576E" points="12.1212121 58.4848485 32.1212121 58.4848485 32.1212121 64.4767992 12.1212121 64.4767992"></polygon>
            </g>
        </g>
    </g>
</svg>